<svg xmlns="http://www.w3.org/2000/svg" xmlns:xlink="http://www.w3.org/1999/xlink" width="36" height="36" viewBox="0 0 36 36" fill="none"><g opacity="1"  transform="translate(0 0)  rotate(0)"><mask id="bg-mask-0" fill="white"><use transform="translate(0 0)  rotate(0)" xlink:href="#path_0"></use></mask><g mask="url(#bg-mask-0)" ><path id="路径 1" fill-rule="evenodd" style="fill:#EFEFEF" opacity="1" d="M5.94676 29.9373C7.70676 32.7673 13.0368 37.6973 26.0568 29.5973C39.0668 21.4873 36.0068 12.3073 34.0668 9.19727C24.9968 -5.38273 -5.41324 4.90727 1.06676 15.3073C4.71676 21.1773 4.18676 27.1073 5.94676 29.9373Z"></path><path id="分组 1" fill-rule="evenodd" style="fill:#F3F3F1" opacity="1" d="M18.05,6.75c-3.98,6.77 -3.98,15.73 0,22.5h-0.05l-0.49,-0.02c-1.71,-5.59 -5.74,-10.03 -10.73,-10.55c-0.01,-0.23 -0.03,-0.45 -0.03,-0.68c0,-6.21 5.04,-11.25 11.25,-11.25zM18.056,6.753c6.19,0.03 11.19,5.05 11.19,11.25c0,0.22 -0.02,0.45 -0.03,0.67c-4.99,0.53 -9.02,4.97 -10.72,10.55l-0.44,0.02c3.91,-6.69 3.77,-15.72 0,-22.49z"></path><path id="路径 4" fill-rule="evenodd" style="fill:#2FDF84" opacity="1" d="M29.214 18.677C24.224 19.207 20.194 23.637 18.494 29.227C24.254 28.977 28.874 24.407 29.214 18.677Z"></path><path id="路径 5" fill-rule="evenodd" style="fill:#2FDF84" opacity="1" d="M18.0552 29.25C21.9652 22.56 21.8252 13.52 18.0552 6.75C14.0652 13.52 14.0652 22.48 18.0552 29.25Z"></path><path id="路径 6" fill-rule="evenodd" style="fill:#2FDF84" opacity="1" d="M17.504 29.227C15.804 23.637 11.774 19.207 6.784 18.677C7.124 24.407 11.754 28.977 17.504 29.227Z"></path><g opacity="1"  transform="translate(6.75 6.749000549316406)  rotate(0)"><path id="路径 7" fill-rule="evenodd" style="fill:#D5DBE1" opacity="1" d="M11.17 0.25C11.22 0.17 11.26 0.08 11.3 0C11.29 0 11.27 0 11.25 0C5.04 0 0 5.04 0 11.25C0 11.48 0.02 11.7 0.03 11.93C5.02 12.45 9.05 16.89 10.76 22.48L11.25 22.5C11.27 22.5 11.29 22.5 11.3 22.5C9.96 20.22 9.09 17.69 8.65 15.09C6.85 13.34 4.68 12.18 2.28 11.93C2.27 11.7 2.25 11.48 2.25 11.25C2.25 5.84 6.08 1.32 11.17 0.25Z"></path><path id="分组 3" fill-rule="evenodd" style="fill:#00B871" opacity="1" d="M12.2053,1.841c0.06,0.15 0.13,0.3 0.19,0.46c-2.44,5.64 -2.43,12.32 0.03,17.95c-0.12,0.28 -0.24,0.55 -0.37,0.82l-0.06,0.15c-0.2,0.39 -0.41,0.77 -0.62,1.16c-0.03,0.04 -0.05,0.08 -0.07,0.12c-3.99,-6.77 -3.99,-15.73 0,-22.5c0.1,0.18 0.18,0.36 0.27,0.54c0.14,0.25 0.27,0.5 0.39,0.76c0.09,0.17 0.16,0.36 0.24,0.54zM2.344,12.478c0.51,4.67 3.86,8.46 8.29,9.63c0.04,0.12 0.08,0.24 0.12,0.37c-5.75,-0.25 -10.38,-4.82 -10.72,-10.55c0.8,0.08 1.57,0.28 2.31,0.55zM11.744,22.478c1.7,-5.58 5.73,-10.03 10.72,-10.55c-0.01,0.19 -0.04,0.37 -0.06,0.55c-3.8,1.4 -6.81,5.11 -8.29,9.63c-0.76,0.2 -1.55,0.33 -2.37,0.37z"></path></g><g opacity="1"  transform="translate(0 2.878000259399414)  rotate(0)"><path id="分组 5" fill-rule="evenodd" style="fill:#A4AFC1" opacity="1" d="M32.485,6.936c0.83,0 1.5,0.67 1.5,1.5c0,0.83 -0.67,1.5 -1.5,1.5c-0.83,0 -1.5,-0.67 -1.5,-1.5c0,-0.83 0.67,-1.5 1.5,-1.5zM32.985,8.436c0,-0.28 -0.22,-0.5 -0.5,-0.5c-0.27,0 -0.5,0.22 -0.5,0.5c0,0.28 0.23,0.5 0.5,0.5c0.27,0 0.5,-0.22 0.5,-0.5z"></path><path id="路径 13" fill-rule="evenodd" style="fill:#A4AFC1" opacity="1" d="M3.5 2L4.5 2L4.5 0L3.5 0L3.5 2Z"></path><path id="路径 14" fill-rule="evenodd" style="fill:#A4AFC1" opacity="1" d="M3.5 7.75L4.5 7.75L4.5 5.75L3.5 5.75L3.5 7.75Z"></path><path id="路径 15" fill-rule="evenodd" style="fill:#A4AFC1" opacity="1" d="M0 4.25L2 4.25L2 3.25L0 3.25L0 4.25Z"></path><path id="路径 16" fill-rule="evenodd" style="fill:#A4AFC1" opacity="1" d="M5.75 4.25L7.75 4.25L7.75 3.25L5.75 3.25L5.75 4.25Z"></path></g><g opacity="1"  transform="translate(6 5.999953269958496)  rotate(0)"><path id="路径 17" fill-rule="evenodd" style="fill:#000000" opacity="1" d="M23.309 13.418L23.149 11.928C18.129 12.448 13.659 16.808 11.769 23.018C11.749 23.098 11.739 23.178 11.739 23.248L12.509 23.248L13.209 23.458C14.919 17.818 18.889 13.878 23.309 13.418Z"></path><path id="分组 7" fill-rule="evenodd" style="fill:#000000" opacity="1" d="M12.059,24c-0.27,0 -0.52,-0.14 -0.65,-0.37c-4.09,-6.96 -4.09,-16.3 0,-23.26c0.13,-0.23 0.37,-0.37 0.65,-0.37c0.27,0 0.52,0.15 0.65,0.39c3.96,7.11 3.96,16.45 -0.01,23.24c-0.13,0.23 -0.38,0.37 -0.64,0.37zM12.0516,21.667c2.85,-5.81 2.84,-13.25 -0.02,-19.31c-2.94,5.94 -2.93,13.38 0.02,19.31z"></path><path id="路径 20" fill-rule="evenodd" style="fill:#000000" opacity="1" d="M11.492 23.249L12.262 23.239C12.262 23.169 12.252 23.089 12.232 23.019C10.332 16.809 5.872 12.449 0.842001 11.929L0.692001 13.419C5.112 13.879 9.082 17.819 10.792 23.459L11.492 23.249Z"></path><path id="分组 8" fill-rule="evenodd" style="fill:#000000" opacity="1" d="M12,0.00005c6.62,0 12,5.38 12,11.99995c0,6.62 -5.38,12 -12,12c-6.62,0 -12,-5.38 -12,-12c0,-6.61995 5.38,-11.99995 12,-11.99995zM22.5,12c0,-5.78995 -4.71,-10.49995 -10.5,-10.49995c-5.79,0 -10.5,4.71 -10.5,10.49995c0,5.79 4.71,10.5 10.5,10.5c5.79,0 10.5,-4.71 10.5,-10.5z"></path></g></g></g><defs><rect id="path_0" x="0" y="0" width="36" height="36" /></defs></svg>