<svg xmlns="http://www.w3.org/2000/svg" xmlns:xlink="http://www.w3.org/1999/xlink" width="36" height="36" viewBox="0 0 36 36" fill="none"><g opacity="1"  transform="translate(0 0)  rotate(0)"><mask id="bg-mask-0" fill="white"><use transform="translate(0 0)  rotate(0)" xlink:href="#path_0"></use></mask><g mask="url(#bg-mask-0)" ><path id="路径 1" fill-rule="evenodd" style="fill:#EFEFEF" opacity="1" d="M29.7044 5.84025C27.8744 3.05025 22.4444 -1.76975 9.60441 6.62025C-3.22559 15.0002 0.0344147 24.1202 2.04441 27.1902C11.4344 41.5602 41.6044 30.6102 34.9044 20.3502C31.1244 14.5602 31.5244 8.63025 29.7044 5.84025Z"></path><path id="路径 2" fill-rule="evenodd" style="fill:#2FDF84" opacity="1" d="M26.2706 8.98L16.5606 8.98C12.3006 8.98 9.63063 11.64 7.87063 16.23C6.11063 20.81 6.95063 27.75 6.95063 27.75C6.95063 27.75 7.60063 24.91 12.7006 24.84C16.4306 24.79 21.6306 24.94 24.9506 22.79C27.7606 20.97 28.2006 15.98 28.2006 15.98L29.2506 8.25C28.3506 9.16 26.2706 8.98 26.2706 8.98Z"></path><path id="分组 1" fill-rule="evenodd" style="fill:#00B871" opacity="1" d="M28.517,8.98h-1.43c0.68,-0.03 1.63,-0.19 2.16,-0.73l-0.1,0.74c-0.36,0.01 -0.63,-0.01 -0.63,-0.01zM10.12,16.223c-1.15,2.98 -1.19,6.94 -1.08,9.36c-1.79,0.86 -2.09,2.17 -2.09,2.17c0,0 -0.84,-6.94 0.92,-11.53c1.75,-4.58 4.43,-7.24 8.69,-7.24h2.25c-4.26,0 -6.93,2.66 -8.69,7.24z"></path><path id="分组 2" fill-rule="evenodd" style="fill:#A4AFC1" opacity="1" d="M6.75,6.25c0.83,0 1.5,0.67 1.5,1.5c0,0.83 -0.67,1.5 -1.5,1.5c-0.83,0 -1.5,-0.67 -1.5,-1.5c0,-0.83 0.67,-1.5 1.5,-1.5zM7.25,7.75c0,-0.28 -0.22,-0.5 -0.5,-0.5c-0.28,0 -0.5,0.22 -0.5,0.5c0,0.28 0.22,0.5 0.5,0.5c0.28,0 0.5,-0.22 0.5,-0.5z"></path><path id="路径 7" fill-rule="evenodd" style="fill:#A4AFC1" opacity="1" d="M25.625 26.5L27.625 26.5L27.625 25.5L25.625 25.5L25.625 26.5Z"></path><path id="路径 8" fill-rule="evenodd" style="fill:#A4AFC1" opacity="1" d="M31.375 26.5L33.375 26.5L33.375 25.5L31.375 25.5L31.375 26.5Z"></path><path id="路径 9" fill-rule="evenodd" style="fill:#A4AFC1" opacity="1" d="M28.875 30L29.875 30L29.875 28L28.875 28L28.875 30Z"></path><path id="路径 10" fill-rule="evenodd" style="fill:#A4AFC1" opacity="1" d="M28.875 24.25L29.875 24.25L29.875 22.25L28.875 22.25L28.875 24.25Z"></path><g opacity="1"  transform="translate(5.995880126953125 7.5000762939453125)  rotate(0)"><path id="分组 4" fill-rule="evenodd" style="fill:#000000" opacity="1" d="M0.96,20.99h-0.05c-0.36,-0.02 -0.65,-0.29 -0.7,-0.65c-0.00076,-0.0073 -0.00202,-0.0189 -0.00373,-0.0346c-0.06565,-0.6032 -0.79065,-7.2645 0.96373,-11.8454c2,-5.2 5.07,-7.73 9.4,-7.73h9.7c0.0221,0.00736 0.0388,0.00388 0.05,0.00154c0.004,-0.00084 0.0074,-0.00154 0.01,-0.00154c0.71,0.05 1.93,-0.04 2.39,-0.51c0.23,-0.23 0.58,-0.29 0.87,-0.14c0.29,0.14 0.45,0.45 0.41,0.77l-1.05,7.73c-0.01,0.18 -0.51,5.34 -3.59,7.34c-3.22,2.09 -7.91,2.13 -11.68,2.16l-0.96,0.01c-4.38,0.06 -5.01,2.24 -5.03,2.34c-0.09,0.33 -0.39,0.56 -0.73,0.56zM6.6969,16.5889l0.97,-0.01c3.58,-0.03 8.02,-0.06 10.88,-1.92c2.47,-1.6 2.91,-6.2 2.91,-6.25l0.86,-6.35c-0.84,0.22 -1.7,0.2 -2.07,0.17h-9.68c-3.68,0 -6.22,2.15 -8,6.77c-1.1,2.88 -1.13,6.8 -1.02,9.15c0.94,-0.79 2.52,-1.52 5.15,-1.56z"></path></g></g></g><defs><rect id="path_0" x="0" y="0" width="36" height="36" /></defs></svg>